<?xml version="1.0" standalone="no"?><!DOCTYPE svg PUBLIC "-//W3C//DTD SVG 1.1//EN" "http://www.w3.org/Graphics/SVG/1.1/DTD/svg11.dtd"><svg t="1781391679859" class="icon" viewBox="0 0 1024 1024" version="1.1" xmlns="http://www.w3.org/2000/svg" p-id="3062" xmlns:xlink="http://www.w3.org/1999/xlink" width="256" height="256"><path d="M505.130667 333.909333c27.733333-28.288 55.466667-42.794667 83.157333-43.52 37.162667-4.266667 82.090667 14.122667 109.226667 37.674667 27.093333 23.509333 43.733333 28.757333 61.056 28.757333 17.365333 0 91.392-30.677333 84.906666-110.890666-6.485333-80.213333-68.096-106.581333-84.906666-114.773334-16.768-8.192-15.488-51.882667 20.181333-45.098666 35.626667 6.741333 129.024 70.4 133.12 195.541333 4.096 125.098667-92.586667 201.088-165.845333 244.096s-104.746667 77.866667-107.093334 143.146667c-2.261333 65.28 18.773333 200.661333 24.192 239.104 3.626667 25.6 0.469333 35.2-9.386666 28.8h-106.965334c-11.52 0-18.304-9.6-20.352-28.8V848.64c-81.706667 20.650667-156.8 14.336-225.28-18.858667 4.181333 48.213333 6.485333 78.037333 6.954667 89.429334 0.512 11.434667-6.912 17.237333-22.272 17.493333H206.976c-55.381333-75.946667-81.664-149.248-78.762667-219.861333 2.901333-70.656 25.813333-125.226667 68.821334-163.754667 47.872 54.613333 101.12 82.688 159.786666 84.181333 68.693333-2.602667 118.101333-28.117333 148.309334-76.458666a315.946667 315.946667 0 0 1-119.893334 45.141333c-101.418667 12.501333-192.128-65.365333-188.16-161.962667 3.925333-96.597333 82.432-157.184 159.744-160.426666 51.541333-2.176 100.992 14.592 148.309334 50.304z m111.573333 12.970667a35.114667 35.114667 0 1 0 0 70.229333 35.114667 35.114667 0 0 0 0-70.229333z" fill="#17233D" p-id="3063"></path></svg>